<?xml version="1.0" encoding="UTF-8"?>
<svg id="Layer_1" data-name="Layer 1" xmlns="http://www.w3.org/2000/svg" viewBox="0 0 1142 899.13">
  <defs>
    <style>
      .cls-1 {
        fill: #fff;
      }
    </style>
  </defs>
  <path class="cls-1" d="M1069.6,521.32H72.2c-39.87,0-72.2-32.32-72.2-72.19s32.32-72.2,72.2-72.2h997.41c39.87,0,72.2,32.32,72.2,72.2s-32.32,72.19-72.2,72.19Z"/>
  <path class="cls-1" d="M606.11,899.13c-21.03,0-41.87-9.14-56.14-26.75-25.1-30.98-20.34-76.44,10.64-101.54l463.73-375.74c30.98-25.1,76.45-20.34,101.54,10.64,25.1,30.98,20.34,76.44-10.64,101.54l-463.73,375.74c-13.37,10.83-29.44,16.1-45.41,16.1Z"/>
  <path class="cls-1" d="M1069.69,520.13c-15.97,0-32.03-5.27-45.41-16.1l-463.73-375.74c-30.98-25.1-35.75-70.56-10.64-101.54,25.1-30.98,70.57-35.74,101.54-10.64l463.73,375.74c30.98,25.1,35.75,70.56,10.64,101.54-14.27,17.61-35.11,26.75-56.14,26.75Z"/>
</svg>